<svg width="40" height="40" viewBox="0 0 40 40" fill="none" xmlns="http://www.w3.org/2000/svg">
<path d="M32.8571 14.2857C32.8571 21.4 20 38.5714 20 38.5714C20 38.5714 7.14286 21.4 7.14286 14.2857C7.14286 10.8758 8.49745 7.60554 10.9086 5.19436C13.3198 2.78318 16.5901 1.42859 20 1.42859C23.4099 1.42859 26.6802 2.78318 29.0914 5.19436C31.5026 7.60554 32.8571 10.8758 32.8571 14.2857Z" stroke="#1E1E1E" stroke-width="2" stroke-linecap="round" stroke-linejoin="round"/>
<path d="M20 18.5714C22.3669 18.5714 24.2857 16.6526 24.2857 14.2857C24.2857 11.9188 22.3669 10 20 10C17.6331 10 15.7143 11.9188 15.7143 14.2857C15.7143 16.6526 17.6331 18.5714 20 18.5714Z" stroke="#1E1E1E" stroke-width="2" stroke-linecap="round" stroke-linejoin="round"/>
</svg>
