<svg width="40" height="40" viewBox="0 0 40 40" fill="none" xmlns="http://www.w3.org/2000/svg">
<g clip-path="url(#clip0_2_117)">
<path d="M38.5714 38.5143H37.1429C35.6273 38.5143 34.1739 37.9122 33.1023 36.8406C32.0306 35.7689 31.4286 34.3155 31.4286 32.8C31.4286 34.3155 30.8265 35.7689 29.7549 36.8406C28.6833 37.9122 27.2298 38.5143 25.7143 38.5143C24.1988 38.5143 22.7453 37.9122 21.6737 36.8406C20.602 35.7689 20 34.3155 20 32.8C20 34.3155 19.398 35.7689 18.3263 36.8406C17.2547 37.9122 15.8012 38.5143 14.2857 38.5143C12.7702 38.5143 11.3167 37.9122 10.2451 36.8406C9.17347 35.7689 8.57143 34.3155 8.57143 32.8C8.57143 34.3155 7.96939 35.7689 6.89776 36.8406C5.82612 37.9122 4.37267 38.5143 2.85715 38.5143H1.42857M28.5714 27.0857C27.0999 25.2967 25.2505 23.8558 23.1559 22.8665C21.0613 21.8773 18.7736 21.3642 16.4571 21.3642C14.1407 21.3642 11.853 21.8773 9.75843 22.8665C7.66384 23.8558 5.81436 25.2967 4.34286 27.0857" stroke="#1E1E1E" stroke-width="2" stroke-linecap="round" stroke-linejoin="round"/>
<path d="M18.5714 21.5143C18.7429 15.0571 20.7143 9.17142 25 7.05713M16.4572 1.62856C18.3092 1.26387 20.2307 1.62359 21.8254 2.63358C23.4201 3.64358 24.5666 5.22687 25.0286 7.05713" stroke="#1E1E1E" stroke-width="2" stroke-linecap="round" stroke-linejoin="round"/>
<path d="M35.4571 8.11426C34.1421 6.69433 32.3539 5.80337 30.4284 5.60872C28.5029 5.41406 26.5726 5.92911 25 7.05712" stroke="#1E1E1E" stroke-width="2" stroke-linecap="round" stroke-linejoin="round"/>
<path d="M14.5143 10.1143C15.6339 8.46485 17.2933 7.25725 19.2071 6.69927C21.121 6.14129 23.1694 6.26783 25 7.05713C26.8362 7.50619 28.4259 8.65134 29.4335 10.2507C30.4412 11.8501 30.7877 13.7784 30.4 15.6286" stroke="#1E1E1E" stroke-width="2" stroke-linecap="round" stroke-linejoin="round"/>
</g>
<defs>
<clipPath id="clip0_2_117">
<rect width="40" height="40" fill="white"/>
</clipPath>
</defs>
</svg>
