<svg width="40" height="40" viewBox="0 0 40 40" fill="none" xmlns="http://www.w3.org/2000/svg">
<path d="M35.7143 30C36.4721 30 37.1988 29.699 37.7346 29.1631C38.2704 28.6273 38.5714 27.9006 38.5714 27.1428V21.4286C38.5714 20.6708 38.2704 19.9441 37.7346 19.4082C37.1988 18.8724 36.4721 18.5714 35.7143 18.5714H31.4286L29.2286 11.9428C29.0298 11.3515 28.6429 10.8414 28.127 10.4906C27.611 10.1398 26.9945 9.96746 26.3714 9.99998H14.9143C14.2912 9.96746 13.6747 10.1398 13.1588 10.4906C12.6428 10.8414 12.2559 11.3515 12.0571 11.9428L10 18.5714H4.28572C3.52796 18.5714 2.80123 18.8724 2.26541 19.4082C1.72959 19.9441 1.42857 20.6708 1.42857 21.4286V27.1428C1.42857 27.9006 1.72959 28.6273 2.26541 29.1631C2.80123 29.699 3.52796 30 4.28572 30" stroke="#1E1E1E" stroke-width="2" stroke-linecap="round" stroke-linejoin="round"/>
<path d="M10 35.7142C13.1559 35.7142 15.7143 33.1558 15.7143 29.9999C15.7143 26.844 13.1559 24.2856 10 24.2856C6.84409 24.2856 4.28572 26.844 4.28572 29.9999C4.28572 33.1558 6.84409 35.7142 10 35.7142Z" stroke="#1E1E1E" stroke-width="2" stroke-linecap="round" stroke-linejoin="round"/>
<path d="M30 35.7142C33.1559 35.7142 35.7143 33.1558 35.7143 29.9999C35.7143 26.844 33.1559 24.2856 30 24.2856C26.8441 24.2856 24.2857 26.844 24.2857 29.9999C24.2857 33.1558 26.8441 35.7142 30 35.7142Z" stroke="#1E1E1E" stroke-width="2" stroke-linecap="round" stroke-linejoin="round"/>
<path d="M15.7143 29.9999H24.2857M20 9.99993V4.28564" stroke="#1E1E1E" stroke-width="2" stroke-linecap="round" stroke-linejoin="round"/>
</svg>
