<svg width="200" height="49" viewBox="0 0 200 49" fill="none" xmlns="http://www.w3.org/2000/svg">
<path d="M11.67 36.48C9.67 36.48 7.85 36.01 6.21 35.07C4.59 34.11 3.3 32.81 2.34 31.17C1.4 29.51 0.93 27.68 0.93 25.68C0.93 23.64 1.39 21.8 2.31 20.16C3.23 18.52 4.49 17.24 6.09 16.32C7.69 15.38 9.49 14.91 11.49 14.91C12.57 14.91 13.63 15.04 14.67 15.3C15.71 15.56 16.6 15.93 17.34 16.41L16.53 21.06C15.09 20.52 13.79 20.25 12.63 20.25C11.03 20.25 9.8 20.72 8.94 21.66C8.08 22.58 7.65 23.91 7.65 25.65C7.65 27.35 8.1 28.68 9 29.64C9.92 30.58 11.19 31.05 12.81 31.05C13.43 31.05 14.01 30.99 14.55 30.87C15.09 30.75 15.75 30.53 16.53 30.21L17.37 34.95C15.63 35.97 13.73 36.48 11.67 36.48ZM27.2318 36.24C25.5518 36.24 24.0518 35.91 22.7318 35.25C21.4318 34.59 20.4118 33.68 19.6718 32.52C18.9518 31.34 18.5918 29.99 18.5918 28.47C18.5918 26.95 18.9618 25.61 19.7018 24.45C20.4418 23.27 21.4618 22.36 22.7618 21.72C24.0818 21.08 25.5818 20.76 27.2618 20.76C28.9618 20.76 30.4618 21.09 31.7618 21.75C33.0818 22.39 34.1018 23.29 34.8218 24.45C35.5418 25.61 35.9018 26.95 35.9018 28.47C35.9018 30.01 35.5318 31.37 34.7918 32.55C34.0718 33.71 33.0518 34.62 31.7318 35.28C30.4318 35.92 28.9318 36.24 27.2318 36.24ZM27.2918 31.74C28.1118 31.74 28.7818 31.44 29.3018 30.84C29.8418 30.22 30.1118 29.43 30.1118 28.47C30.1118 27.51 29.8418 26.73 29.3018 26.13C28.7818 25.51 28.1118 25.2 27.2918 25.2C26.4718 25.2 25.7918 25.51 25.2518 26.13C24.7318 26.73 24.4718 27.51 24.4718 28.47C24.4718 29.43 24.7318 30.22 25.2518 30.84C25.7918 31.44 26.4718 31.74 27.2918 31.74ZM43.4304 36.24C41.7304 36.24 40.4104 35.71 39.4704 34.65C38.5504 33.57 38.0904 32.1 38.0904 30.24V16.23L44.4204 15.3V29.79C44.4204 30.35 44.5504 30.76 44.8104 31.02C45.0904 31.26 45.5704 31.38 46.2504 31.38C46.7504 31.38 47.2404 31.26 47.7204 31.02L47.9304 35.22C46.5904 35.9 45.0904 36.24 43.4304 36.24ZM57.3783 36.24C55.6983 36.24 54.1983 35.91 52.8783 35.25C51.5783 34.59 50.5583 33.68 49.8183 32.52C49.0983 31.34 48.7383 29.99 48.7383 28.47C48.7383 26.95 49.1083 25.61 49.8483 24.45C50.5883 23.27 51.6083 22.36 52.9083 21.72C54.2283 21.08 55.7283 20.76 57.4083 20.76C59.1083 20.76 60.6083 21.09 61.9083 21.75C63.2283 22.39 64.2483 23.29 64.9683 24.45C65.6883 25.61 66.0483 26.95 66.0483 28.47C66.0483 30.01 65.6783 31.37 64.9383 32.55C64.2183 33.71 63.1983 34.62 61.8783 35.28C60.5783 35.92 59.0783 36.24 57.3783 36.24ZM57.4383 31.74C58.2583 31.74 58.9283 31.44 59.4483 30.84C59.9883 30.22 60.2583 29.43 60.2583 28.47C60.2583 27.51 59.9883 26.73 59.4483 26.13C58.9283 25.51 58.2583 25.2 57.4383 25.2C56.6183 25.2 55.9383 25.51 55.3983 26.13C54.8783 26.73 54.6183 27.51 54.6183 28.47C54.6183 29.43 54.8783 30.22 55.3983 30.84C55.9383 31.44 56.6183 31.74 57.4383 31.74ZM68.2969 21.18H74.3269V24.24C75.0069 23.06 75.7769 22.19 76.6369 21.63C77.5169 21.05 78.5569 20.76 79.7569 20.76C80.9369 20.76 81.9569 21.06 82.8169 21.66C83.6969 22.24 84.3569 23.03 84.7969 24.03C86.0769 21.85 87.9369 20.76 90.3769 20.76C91.5369 20.76 92.5469 21.07 93.4069 21.69C94.2869 22.31 94.9669 23.21 95.4469 24.39C95.9269 25.55 96.1669 26.92 96.1669 28.5V36H89.8369V28.5C89.8369 27.48 89.6569 26.71 89.2969 26.19C88.9569 25.67 88.4769 25.41 87.8569 25.41C87.1769 25.41 86.5869 25.7 86.0869 26.28C85.6069 26.86 85.3669 27.56 85.3669 28.38V36H79.0969V28.5C79.0969 27.48 78.9169 26.71 78.5569 26.19C78.2169 25.67 77.7269 25.41 77.0869 25.41C76.4069 25.41 75.8269 25.7 75.3469 26.28C74.8669 26.86 74.6269 27.56 74.6269 28.38V36H68.2969V21.18ZM110.398 36.24C108.098 36.24 106.468 35.23 105.508 33.21V36H99.1479V16.23L105.508 15.3V23.79C106.008 22.73 106.658 21.96 107.458 21.48C108.258 21 109.228 20.76 110.368 20.76C111.708 20.76 112.938 21.1 114.058 21.78C115.198 22.44 116.088 23.36 116.728 24.54C117.388 25.72 117.718 27.04 117.718 28.5C117.718 29.94 117.378 31.25 116.698 32.43C116.038 33.61 115.138 34.54 113.998 35.22C112.878 35.9 111.678 36.24 110.398 36.24ZM108.478 31.5C109.298 31.5 109.998 31.2 110.578 30.6C111.158 30 111.448 29.3 111.448 28.5C111.448 27.66 111.148 26.95 110.548 26.37C109.968 25.79 109.278 25.5 108.478 25.5C107.658 25.5 106.958 25.79 106.378 26.37C105.798 26.93 105.508 27.6 105.508 28.38V28.5C105.508 29.34 105.798 30.05 106.378 30.63C106.978 31.21 107.678 31.5 108.478 31.5ZM125.286 36.24C123.606 36.24 122.296 35.7 121.356 34.62C120.416 33.54 119.946 32.07 119.946 30.21V20.97H126.306V29.94C126.306 30.4 126.426 30.76 126.666 31.02C126.926 31.26 127.256 31.38 127.656 31.38C128.056 31.38 128.466 31.26 128.886 31.02L129.216 35.19C128.776 35.53 128.196 35.79 127.476 35.97C126.776 36.15 126.046 36.24 125.286 36.24ZM123.126 18.72C122.186 18.72 121.386 18.43 120.726 17.85C120.086 17.25 119.766 16.52 119.766 15.66C119.766 14.8 120.106 14.08 120.786 13.5C121.466 12.92 122.246 12.63 123.126 12.63C124.046 12.63 124.836 12.93 125.496 13.53C126.176 14.13 126.516 14.84 126.516 15.66C126.516 16.54 126.176 17.27 125.496 17.85C124.816 18.43 124.026 18.72 123.126 18.72ZM137.593 36.24C136.293 36.24 135.073 35.9 133.933 35.22C132.813 34.52 131.913 33.58 131.233 32.4C130.553 31.2 130.213 29.87 130.213 28.41C130.213 26.97 130.553 25.67 131.233 24.51C131.913 23.33 132.823 22.41 133.963 21.75C135.103 21.09 136.313 20.76 137.593 20.76C138.633 20.76 139.593 21.05 140.473 21.63C141.373 22.21 142.053 23.08 142.513 24.24V20.76H148.813V36H142.513V33.21C141.513 35.23 139.873 36.24 137.593 36.24ZM139.543 31.5C140.343 31.5 141.023 31.22 141.583 30.66C142.163 30.08 142.473 29.4 142.513 28.62V28.38C142.473 27.58 142.153 26.9 141.553 26.34C140.973 25.78 140.303 25.5 139.543 25.5C138.703 25.5 137.983 25.8 137.383 26.4C136.803 26.98 136.513 27.68 136.513 28.5C136.513 29.34 136.813 30.05 137.413 30.63C138.013 31.21 138.723 31.5 139.543 31.5Z" fill="#2A6484"/>
<path d="M179.738 1.78265L181.275 2.88975C175.361 8.19677 174.924 7.8598 177.877 15.6422L191.288 18.7478C189.834 25.4533 190.975 27.1165 192.555 31.1248L185.442 31.1526C185.593 36.3001 186.721 40.9054 184.776 47.2173L182.4 46.3617L183.065 41.8941L176.332 42.477C171.426 35.9072 164.688 33.8012 158.445 30.4873C161.313 29.0747 163.984 27.493 164.909 24.4036L163.103 13.7573C167.028 9.20778 170.288 4.86439 179.738 1.78265Z" fill="#2A6484"/>
</svg>
